<?xml version="1.0" encoding="utf-8"?>
<!-- Generator: Adobe Illustrator 23.1.0, SVG Export Plug-In . SVG Version: 6.00 Build 0)  -->
<svg version="1.1" id="Layer_1" xmlns="http://www.w3.org/2000/svg" xmlns:xlink="http://www.w3.org/1999/xlink" x="0px" y="0px"
	 viewBox="0 0 378.6 140.71" style="enable-background:new 0 0 378.6 140.71;" xml:space="preserve">
<style type="text/css">
	.st0{fill:#3A3282;}
</style>
<g>
	<g>
		<path class="st0" d="M24.23,61.16c0-1.84,0.96-2.76,2.89-2.76c1.84,0,2.76,0.92,2.76,2.76v4.47c0,1.75,0.28,3.13,0.85,4.14
			c0.57,1.01,1.95,1.51,4.14,1.51h10.91c0.96,0,1.66,0.29,2.1,0.86c0.44,0.57,0.66,1.16,0.66,1.77c0,0.7-0.24,1.34-0.72,1.91
			c-0.48,0.57-1.16,0.85-2.04,0.85H8.46c-0.79,0-1.43-0.28-1.91-0.85c-0.48-0.57-0.72-1.2-0.72-1.91c0-0.61,0.22-1.2,0.66-1.77
			c0.44-0.57,1.09-0.86,1.97-0.86h10.51c2.45,0,3.94-0.5,4.47-1.51c0.53-1.01,0.79-2.39,0.79-4.14V61.16z M40.53,55.91
			c-1.49-1.31-2.78-2.52-3.88-3.61c-1.1-1.09-2.3-2.21-3.61-3.35c-1.93-1.75-3.68-2.71-5.26-2.89c-1.58-0.17-3.42,0.74-5.52,2.76
			l-8.02,7.49c-0.88,0.61-1.75,0.86-2.63,0.72c-0.88-0.13-1.53-0.42-1.97-0.85c-0.61-0.61-0.9-1.36-0.86-2.23
			c0.04-0.87,0.33-1.49,0.86-1.84c3.42-2.45,6.18-4.64,8.28-6.57c2.1-1.93,3.72-4.03,4.86-6.31c0.44-0.79,0.61-1.84,0.53-3.15
			c-0.09-1.31-1.1-1.97-3.02-1.97h-7.62c-0.7,0-1.31-0.26-1.84-0.79c-0.53-0.52-0.79-1.23-0.79-2.1c0-0.79,0.26-1.42,0.79-1.91
			c0.53-0.48,1.14-0.72,1.84-0.72h29.57c1.93,0,2.89,0.88,2.89,2.63c0,1.93-0.96,2.89-2.89,2.89h-7.49c-1.32,0-2.19,0.31-2.63,0.92
			c-0.44,0.61-0.59,1.34-0.46,2.17c0.13,0.83,0.33,1.51,0.59,2.04c1.05,2.19,2.58,4.16,4.6,5.91c2.02,1.75,4.69,3.9,8.02,6.44
			c0.53,0.35,0.81,0.99,0.86,1.91c0.04,0.92-0.24,1.69-0.86,2.3c-0.52,0.61-1.2,0.94-2.04,0.99C42,56.81,41.23,56.52,40.53,55.91z
			 M11.62,100.59c0-4.29,1.58-7.82,4.73-10.58c3.15-2.76,6.88-4.14,11.17-4.14c4.38,0,8.1,1.38,11.17,4.14
			c3.07,2.76,4.6,6.29,4.6,10.58c0,4.29-1.53,7.82-4.6,10.58c-3.07,2.76-6.79,4.14-11.17,4.14c-4.29,0-8.02-1.38-11.17-4.14
			C13.19,108.41,11.62,104.89,11.62,100.59z M17.4,100.59c0,2.98,0.99,5.28,2.96,6.9c1.97,1.62,4.36,2.43,7.16,2.43
			c2.8,0,5.15-0.81,7.03-2.43c1.88-1.62,2.83-3.92,2.83-6.9c0-2.89-0.94-5.19-2.83-6.9c-1.89-1.71-4.23-2.56-7.03-2.56
			c-2.8,0-5.19,0.86-7.16,2.56C18.38,95.4,17.4,97.7,17.4,100.59z"/>
		<path class="st0" d="M76.15,61.16c0-1.84,0.96-2.76,2.89-2.76c1.84,0,2.76,0.92,2.76,2.76v4.47c0,1.75,0.28,3.13,0.85,4.14
			c0.57,1.01,1.95,1.51,4.14,1.51H97.7c0.96,0,1.66,0.29,2.1,0.86c0.44,0.57,0.66,1.16,0.66,1.77c0,0.7-0.24,1.34-0.72,1.91
			c-0.48,0.57-1.16,0.85-2.04,0.85H60.38c-0.79,0-1.43-0.28-1.91-0.85c-0.48-0.57-0.72-1.2-0.72-1.91c0-0.61,0.22-1.2,0.66-1.77
			c0.44-0.57,1.09-0.86,1.97-0.86h10.51c2.45,0,3.94-0.5,4.47-1.51c0.53-1.01,0.79-2.39,0.79-4.14V61.16z M87.98,12.4
			c1.75,0,3.2,0.48,4.34,1.45c1.14,0.97,1.71,2.41,1.71,4.34v13.8c0,1.67-0.57,2.98-1.71,3.94c-1.14,0.96-2.58,1.45-4.34,1.45H75.1
			c-2.45,0-4.01,0.68-4.67,2.04c-0.66,1.36-0.99,2.74-0.99,4.14v2.1c0,1.58,0.31,3.09,0.92,4.53c0.61,1.45,2.32,2.17,5.12,2.17
			h16.56c1.93,0,2.89,0.88,2.89,2.63c0,1.84-0.97,2.76-2.89,2.76H69.44c-1.58,0-2.94-0.55-4.07-1.64c-1.14-1.1-1.71-2.48-1.71-4.14
			V38.69c0-1.84,0.63-3.35,1.9-4.53c1.27-1.18,2.78-1.77,4.54-1.77h12.35c2.45,0,4.01-0.59,4.67-1.77c0.66-1.18,0.99-2.61,0.99-4.27
			V24.1c0-1.66-0.35-3.13-1.05-4.4c-0.7-1.27-2.36-1.91-4.99-1.91H66.82c-0.7,0-1.34-0.24-1.91-0.72c-0.57-0.48-0.86-1.12-0.86-1.9
			c0-0.88,0.28-1.55,0.86-2.04c0.57-0.48,1.2-0.72,1.91-0.72H87.98z"/>
		<path class="st0" d="M113.21,45.66c0-3.59,1.23-6.75,3.68-9.46h-6.05c-1.67,0-2.5-0.88-2.5-2.63c0-0.7,0.24-1.33,0.72-1.91
			c0.48-0.57,1.07-0.85,1.77-0.85h10.12c2.8,0,4.21-1.36,4.21-4.08v-5.39c0-0.7,0.26-1.31,0.79-1.84c0.53-0.53,1.18-0.79,1.97-0.79
			c0.79,0,1.47,0.26,2.04,0.79c0.57,0.53,0.85,1.14,0.85,1.84v5.26c0,1.67,0.31,2.76,0.92,3.29c0.61,0.52,1.66,0.83,3.15,0.92h9.46
			c0.79,0,1.45,0.29,1.97,0.85c0.53,0.57,0.79,1.21,0.79,1.91c0,1.75-0.92,2.63-2.76,2.63h-4.99c1.05,1.31,1.88,2.78,2.5,4.4
			c0.61,1.62,0.92,3.31,0.92,5.06c0,3.77-1.42,7.03-4.27,9.79c-2.85,2.76-6.33,4.14-10.45,4.14c-4.21,0-7.73-1.38-10.58-4.14
			C114.63,52.69,113.21,49.42,113.21,45.66z M118.73,45.26c0,2.72,0.92,4.86,2.76,6.44c1.84,1.58,3.99,2.37,6.44,2.37
			c2.45,0,4.58-0.79,6.37-2.37c1.8-1.58,2.7-3.72,2.7-6.44c0-2.8-0.9-4.99-2.7-6.57c-1.8-1.58-3.92-2.36-6.37-2.36
			c-2.45,0-4.6,0.79-6.44,2.36S118.73,42.46,118.73,45.26z M129.37,73.65c0-1.93,0.92-2.89,2.76-2.89c0.87,0,1.6,0.26,2.17,0.79
			c0.57,0.53,0.86,1.23,0.86,2.1v11.7c0,1.75,0.28,3.33,0.85,4.73c0.57,1.4,2.39,2.1,5.45,2.1h17.22c1.93,0,2.89,0.87,2.89,2.63
			c0,1.84-0.97,2.76-2.89,2.76h-23.52c-1.67,0-3.05-0.52-4.14-1.58c-1.1-1.05-1.64-2.45-1.64-4.21V73.65z M155.53,27.12
			c0-1.84,0.92-2.76,2.76-2.76c1.31,0.09,2.12,0.48,2.43,1.18c0.31,0.7,0.46,1.23,0.46,1.58v7.76c0,0.09,0,0.26,0,0.52
			c0,1.58,0.2,2.89,0.59,3.94c0.39,1.05,1.86,1.58,4.4,1.58h4.47c0.96,0,1.66,0.31,2.1,0.92c0.44,0.61,0.66,1.23,0.66,1.84
			c0,0.61-0.24,1.23-0.72,1.84c-0.48,0.61-1.16,0.92-2.04,0.92h-4.47c-2.28,0-3.68,0.44-4.21,1.32c-0.52,0.88-0.79,2.19-0.79,3.94
			v13.93c0,0.79-0.29,1.45-0.86,1.97c-0.57,0.52-1.25,0.79-2.04,0.79c-0.79,0-1.45-0.26-1.97-0.79c-0.53-0.53-0.79-1.18-0.79-1.97
			V27.12z"/>
		<path class="st0" d="M197.72,61.16c0-1.84,0.96-2.76,2.89-2.76c1.84,0,2.76,0.92,2.76,2.76v4.47c0,1.75,0.28,3.13,0.85,4.14
			c0.57,1.01,1.95,1.51,4.14,1.51h10.91c0.96,0,1.66,0.29,2.1,0.86c0.44,0.57,0.66,1.16,0.66,1.77c0,0.7-0.24,1.34-0.72,1.91
			c-0.48,0.57-1.16,0.85-2.04,0.85h-37.33c-0.79,0-1.43-0.28-1.91-0.85c-0.48-0.57-0.72-1.2-0.72-1.91c0-0.61,0.22-1.2,0.66-1.77
			c0.44-0.57,1.09-0.86,1.97-0.86h10.51c2.45,0,3.94-0.5,4.47-1.51c0.53-1.01,0.79-2.39,0.79-4.14V61.16z M217.03,112.56
			c0,0.79-0.29,1.45-0.85,1.97c-0.57,0.53-1.25,0.79-2.04,0.79c-0.79,0-1.45-0.26-1.97-0.79c-0.52-0.53-0.79-1.18-0.79-1.97
			l-0.12-13.94c0-2.02-0.35-3.66-1.05-4.93c-0.7-1.27-2.5-1.91-5.39-1.91h-17.35c-0.79,0-1.47-0.24-2.04-0.72
			c-0.57-0.48-0.85-1.16-0.85-2.04c0-0.79,0.28-1.43,0.85-1.91c0.57-0.48,1.25-0.72,2.04-0.72h23.79c1.58,0,2.91,0.46,4.01,1.38
			c1.1,0.92,1.64,2.34,1.64,4.27L217.03,112.56z M191.34,57.94c-1.67,0-3.05-0.55-4.14-1.64c-1.1-1.09-1.64-2.47-1.64-4.14V23.64
			c0-0.87,0.28-1.58,0.86-2.1c0.57-0.53,1.25-0.79,2.04-0.79c0.7,0,1.36,0.26,1.97,0.79c0.61,0.52,0.92,1.23,0.92,2.1v5.26
			c0,1.84,0.28,3.09,0.85,3.75c0.57,0.66,1.64,0.94,3.22,0.85h10.52c1.75,0,2.85-0.33,3.29-0.99c0.44-0.66,0.66-1.86,0.66-3.61
			v-5.91c0-0.7,0.28-1.32,0.85-1.84c0.57-0.53,1.25-0.79,2.04-0.79c0.7,0,1.36,0.26,1.97,0.79c0.61,0.52,0.92,1.14,0.92,1.84v29.18
			c0,1.67-0.53,3.05-1.58,4.14c-1.05,1.1-2.45,1.64-4.21,1.64H191.34z M191.08,47.17c0,1.93,0.22,3.33,0.66,4.21
			c0.44,0.88,1.75,1.32,3.94,1.32h9.46c2.28,0,3.66-0.44,4.14-1.32c0.48-0.87,0.72-2.28,0.72-4.21v-4.08c0-1.75-0.26-3-0.79-3.74
			s-1.93-1.12-4.21-1.12h-9.07c-2.02,0-3.33,0.39-3.94,1.18c-0.61,0.79-0.92,2.02-0.92,3.68V47.17z"/>
		<path class="st0" d="M255.54,82.59c0,0.79-0.24,1.47-0.72,2.04c-0.48,0.57-1.25,0.86-2.3,0.86c-0.79,0-1.42-0.29-1.91-0.86
			c-0.48-0.57-0.72-1.25-0.72-2.04v-5.12c0-1.75-0.24-3.11-0.72-4.08c-0.48-0.96-1.91-1.45-4.27-1.45h-10.91
			c-0.97,0-1.67-0.28-2.1-0.86c-0.44-0.57-0.66-1.2-0.66-1.9s0.24-1.32,0.72-1.84c0.48-0.53,1.16-0.79,2.04-0.79h37.33
			c0.79,0,1.42,0.26,1.91,0.79c0.48,0.52,0.72,1.14,0.72,1.84s-0.2,1.34-0.59,1.9c-0.39,0.57-1.07,0.86-2.04,0.86H260.8
			c-2.45,0-3.94,0.48-4.47,1.45c-0.53,0.97-0.79,2.32-0.79,4.08V82.59z M237.54,36.82c-0.88,0-1.56-0.26-2.04-0.79
			c-0.48-0.52-0.72-1.14-0.72-1.84c0-1.93,0.92-2.89,2.76-2.89h8.94c1.49,0,2.47-0.28,2.96-0.85c0.48-0.57,0.72-1.6,0.72-3.09
			l-0.11-4.23c0-0.79,0.26-1.45,0.79-1.97c0.53-0.52,1.18-0.79,1.97-0.79c0.79,0,1.47,0.26,2.04,0.79c0.57,0.53,0.85,1.18,0.85,1.97
			l0.11,4.1c0,1.67,0.22,2.72,0.66,3.15c0.44,0.44,1.4,0.74,2.89,0.92h9.07c1.84,0,2.76,0.92,2.76,2.76c0,0.7-0.26,1.34-0.79,1.91
			c-0.52,0.57-1.18,0.86-1.97,0.86h-7.76c-1.75,0-2.87,0.33-3.35,0.99c-0.48,0.66-0.68,1.42-0.59,2.3c0.44,1.93,1.86,3.83,4.27,5.72
			c2.41,1.89,5.37,4.05,8.87,6.51c0.7,0.35,1.14,0.99,1.31,1.91c0.17,0.92,0,1.73-0.53,2.43c-0.35,0.52-0.96,0.9-1.84,1.12
			c-0.88,0.22-1.67,0.11-2.36-0.33l-8.41-6.97c-2.1-1.66-3.79-2.54-5.06-2.63c-1.27-0.09-2.96,0.66-5.06,2.23l-9.33,7.36
			c-0.61,0.53-1.38,0.7-2.3,0.53c-0.92-0.17-1.6-0.57-2.04-1.18c-0.44-0.61-0.61-1.36-0.52-2.23c0.09-0.87,0.44-1.53,1.05-1.97
			c3.77-2.36,7.01-4.6,9.73-6.7c2.71-2.1,4.25-4.03,4.6-5.78c0.26-1.4,0.04-2.3-0.66-2.7c-0.7-0.39-1.67-0.59-2.89-0.59H237.54z
			 M268.81,112.56c0,0.79-0.29,1.45-0.85,1.97c-0.57,0.53-1.25,0.79-2.04,0.79c-0.79,0-1.45-0.26-1.97-0.79
			c-0.52-0.53-0.79-1.18-0.79-1.97l-0.12-13.94c0-2.02-0.35-3.66-1.05-4.93c-0.7-1.27-2.5-1.91-5.39-1.91h-17.35
			c-0.79,0-1.47-0.24-2.04-0.72c-0.57-0.48-0.86-1.16-0.86-2.04c0-0.79,0.28-1.43,0.86-1.91c0.57-0.48,1.25-0.72,2.04-0.72h23.79
			c1.58,0,2.91,0.46,4.01,1.38c1.1,0.92,1.64,2.34,1.64,4.27L268.81,112.56z"/>
		<path class="st0" d="M314.95,58.68c-1.49-1.31-2.78-2.52-3.88-3.61c-1.1-1.09-2.3-2.21-3.61-3.35c-1.93-1.75-3.68-2.71-5.26-2.89
			c-1.58-0.17-3.42,0.74-5.52,2.76l-8.02,7.49c-0.88,0.61-1.75,0.86-2.63,0.72c-0.88-0.13-1.53-0.42-1.97-0.85
			c-0.61-0.61-0.9-1.36-0.86-2.23c0.04-0.87,0.33-1.49,0.86-1.84c3.42-2.45,6.18-4.64,8.28-6.57c2.1-1.93,3.72-4.03,4.86-6.31
			c0.44-0.79,0.61-1.84,0.52-3.15c-0.09-1.31-1.1-1.97-3.02-1.97h-7.62c-0.7,0-1.31-0.26-1.84-0.79c-0.53-0.52-0.79-1.23-0.79-2.1
			c0-0.79,0.26-1.42,0.79-1.91c0.53-0.48,1.14-0.72,1.84-0.72h29.57c1.93,0,2.89,0.88,2.89,2.63c0,1.93-0.97,2.89-2.89,2.89h-7.49
			c-1.31,0-2.19,0.31-2.63,0.92c-0.44,0.61-0.59,1.34-0.46,2.17c0.13,0.83,0.33,1.51,0.59,2.04c1.05,2.19,2.58,4.16,4.6,5.91
			c2.02,1.75,4.69,3.9,8.02,6.44c0.53,0.35,0.81,0.99,0.86,1.91c0.04,0.92-0.24,1.69-0.86,2.3c-0.52,0.61-1.2,0.94-2.04,0.99
			C316.42,59.58,315.65,59.29,314.95,58.68z M337.69,68.27c0,0.79-0.26,1.45-0.79,1.97c-0.53,0.52-1.14,0.79-1.84,0.79
			c-0.88,0-1.6-0.26-2.17-0.79c-0.57-0.53-0.85-1.18-0.85-1.97V52.77c0-1.75-0.22-3.13-0.66-4.14c-0.44-1.01-1.67-1.51-3.68-1.51
			h-5.39c-0.79,0-1.49-0.2-2.1-0.59c-0.61-0.39-0.92-1.03-0.92-1.91c0-1.84,1.01-2.76,3.02-2.76h5.39c2.19,0,3.46-0.48,3.81-1.45
			c0.35-0.96,0.53-2.28,0.53-3.94c0-0.26,0-0.44,0-0.52v-5.92c0-0.44,0.15-0.99,0.46-1.64c0.3-0.66,1.12-1.03,2.43-1.12
			c1.84,0,2.76,0.92,2.76,2.76V68.27z M348.55,68.54c0,0.79-0.26,1.45-0.79,1.97c-0.53,0.52-1.18,0.79-1.97,0.79
			c-0.79,0-1.47-0.26-2.04-0.79c-0.57-0.53-0.85-1.18-0.85-1.97V30.03c0-0.35,0.15-0.87,0.46-1.58c0.3-0.7,1.12-1.09,2.43-1.18
			c1.84,0,2.76,0.92,2.76,2.76V68.54z"/>
		<g>
			<path class="st0" d="M217.19,140.71c-75.62,0-127.47-25.31-146.25-36.19c-0.85-0.49-1.86-0.49-2.71-0.01
				c-0.86,0.5-1.37,1.39-1.37,2.38v27.4c0,3.53-2.88,6.41-6.41,6.41H1.23c-0.68,0-1.23-0.55-1.23-1.23s0.55-1.23,1.23-1.23h59.23
				c2.17,0,3.94-1.77,3.94-3.94v-27.4c0-1.89,0.97-3.58,2.6-4.52c1.62-0.93,3.55-0.93,5.17,0.01
				c18.61,10.78,69.99,35.86,145.01,35.86c73.4,0,126.66-26.84,149.41-38.3c1.63-0.82,3.11-1.57,4.43-2.22
				c3.15-1.55,5.11-4.72,5.11-8.25V5.83c0-1.86-1.51-3.37-3.37-3.37h-257.6c-0.68,0-1.23-0.55-1.23-1.23S114.49,0,115.17,0h257.6
				c3.22,0,5.83,2.62,5.83,5.83v83.65c0,4.48-2.48,8.49-6.48,10.46c-1.32,0.65-2.79,1.39-4.42,2.21
				C344.8,113.69,291.17,140.71,217.19,140.71z"/>
		</g>
	</g>
</g>
</svg>
